<?xml version="1.0" encoding="UTF-8" standalone="no"?>
<!-- Generator: Adobe Illustrator 16.0.0, SVG Export Plug-In . SVG Version: 6.00 Build 0)  -->

<svg
   xmlns:dc="http://purl.org/dc/elements/1.1/"
   xmlns:cc="http://creativecommons.org/ns#"
   xmlns:rdf="http://www.w3.org/1999/02/22-rdf-syntax-ns#"
   xmlns:svg="http://www.w3.org/2000/svg"
   xmlns="http://www.w3.org/2000/svg"
   xmlns:sodipodi="http://sodipodi.sourceforge.net/DTD/sodipodi-0.dtd"
   xmlns:inkscape="http://www.inkscape.org/namespaces/inkscape"
   version="1.1"
   id="Layer_1"
   x="0px"
   y="0px"
   width="16.842251"
   height="22.184999"
   viewBox="0 0 16.84225 22.184999"
   enable-background="new 0 0 595.28 841.89"
   xml:space="preserve"
   sodipodi:docname="carnet.svg"
   inkscape:version="0.92.5 (2060ec1f9f, 2020-04-08)"><metadata
   id="metadata971"><rdf:RDF><cc:Work
       rdf:about=""><dc:format>image/svg+xml</dc:format><dc:type
         rdf:resource="http://purl.org/dc/dcmitype/StillImage" /><dc:title></dc:title></cc:Work></rdf:RDF></metadata><defs
   id="defs969" /><sodipodi:namedview
   pagecolor="#ffffff"
   bordercolor="#666666"
   borderopacity="1"
   objecttolerance="10"
   gridtolerance="10"
   guidetolerance="10"
   inkscape:pageopacity="0"
   inkscape:pageshadow="2"
   inkscape:window-width="1920"
   inkscape:window-height="991"
   id="namedview967"
   showgrid="false"
   inkscape:zoom="2.2425732"
   inkscape:cx="-45.740908"
   inkscape:cy="5.6202828"
   inkscape:window-x="0"
   inkscape:window-y="28"
   inkscape:window-maximized="1"
   inkscape:current-layer="Layer_1" />





























































































<g
   id="g754"
   transform="translate(-422.387,-620.88)">
	<path
   d="m 435.822,629.236 c -0.225,0 -0.408,0.185 -0.408,0.41 v 12.598 h -12.207 v -17.611 h 7.164 c 0.227,0 0.41,-0.185 0.41,-0.408 0,-0.228 -0.184,-0.41 -0.41,-0.41 h -7.574 c -0.227,0 -0.41,0.183 -0.41,0.41 v 18.43 c 0,0.226 0.184,0.41 0.41,0.41 h 13.025 c 0.227,0 0.41,-0.185 0.41,-0.41 v -13.008 c 0,-0.226 -0.183,-0.411 -0.41,-0.411 z"
   id="path750"
   inkscape:connector-curvature="0"
   style="fill:#ffffff" />
	<path
   d="m 434.596,621.648 -0.812,0.812 -9.562,9.565 c -0.076,0.074 -0.125,0.176 -0.125,0.292 v 3.255 c 0,0.227 0.186,0.409 0.41,0.409 l 3.26,0.004 c 0.113,0 0.215,-0.046 0.289,-0.119 l 10.379,-10.38 c 1.059,-1.059 1.059,-2.781 0,-3.838 -1.025,-1.024 -2.816,-1.024 -3.839,0 z m -9.682,13.514 v -1.854 l 1.859,1.856 z m 2.852,-0.166 -2.68,-2.677 8.986,-8.99 2.678,2.683 z m 9.564,-9.564 -2.678,-2.683 0.234,-0.231 2.678,2.68 z m 0.783,-0.846 -2.617,-2.616 c 0.717,-0.462 1.744,-0.358 2.357,0.257 0.641,0.639 0.727,1.627 0.26,2.359 z"
   id="path752"
   inkscape:connector-curvature="0"
   style="fill:#ffffff" />
</g>




















</svg>